<svg width="24" height="24" viewBox="0 0 24 24" fill="none" xmlns="http://www.w3.org/2000/svg">
<path fill-rule="evenodd" clip-rule="evenodd" d="M19.5945 8.28426C17.4723 10.8175 14.7247 12.0509 12.0109 12.0509C9.29715 12.0509 6.54957 10.8175 4.42741 8.28426C4.14563 7.94789 3.64453 7.90364 3.30816 8.18542C2.97179 8.4672 2.92754 8.96831 3.20932 9.30468C3.61527 9.78927 4.04349 10.2339 4.49038 10.6382L3.19517 12.0916C2.90324 12.4192 2.94569 12.9053 3.28999 13.1773C3.63429 13.4493 4.15006 13.4043 4.44199 13.0767L5.7336 11.6273C6.36605 12.0668 7.02559 12.4351 7.70388 12.7315L7.04644 14.2786C6.87612 14.6794 7.07444 15.1279 7.48939 15.2804C7.90434 15.4329 8.3788 15.2316 8.54911 14.8308L9.21463 13.2647C9.97315 13.4712 10.7465 13.5929 11.5239 13.6287V15.2064C11.5239 15.6452 11.8797 16.001 12.3185 16.001C12.7573 16.001 13.113 15.6452 13.113 15.2064V13.5824C13.8694 13.5031 14.6192 13.3423 15.3524 13.1007L16.0876 14.8308C16.2579 15.2316 16.7323 15.4329 17.1473 15.2804C17.5622 15.1279 17.7605 14.6794 17.5902 14.2786L16.831 12.4918C17.3208 12.2478 17.7994 11.9653 18.2636 11.6444L19.5398 13.077C19.8317 13.4046 20.3474 13.4496 20.6917 13.1776C21.036 12.9055 21.0784 12.4193 20.7865 12.0917L19.5094 10.6581C19.9643 10.2485 20.3999 9.79726 20.8126 9.30468C21.0943 8.96831 21.0501 8.4672 20.7137 8.18542C20.3774 7.90364 19.8762 7.94789 19.5945 8.28426Z" fill="#256386"/>
</svg>
