<svg width="24" height="24" viewBox="0 0 24 24" fill="none" xmlns="http://www.w3.org/2000/svg">
<path fill-rule="evenodd" clip-rule="evenodd" d="M8.17568 10.2204C6.88131 10.8849 5.65732 11.9038 4.59096 13.2904C4.33589 13.622 3.86455 13.6808 3.53819 13.4216C3.21183 13.1623 3.15403 12.6833 3.4091 12.3517C5.74292 9.31707 8.84678 7.75 12 7.75C15.1533 7.75 18.2571 9.31707 20.591 12.3517C20.846 12.6833 20.7882 13.1623 20.4619 13.4216C20.1355 13.6808 19.6642 13.622 19.4091 13.2904C18.3427 11.9038 17.1187 10.8849 15.8244 10.2204C16.7204 11.8967 16.4709 14.0376 15.0759 15.4552C13.3772 17.1816 10.6229 17.1816 8.92411 15.4552C7.52914 14.0376 7.27966 11.8967 8.17568 10.2204ZM9.98477 10.2814C11.0978 9.15032 12.9023 9.15032 14.0153 10.2814C15.1283 11.4125 15.1283 13.2463 14.0153 14.3773C12.9023 15.5084 11.0978 15.5084 9.98477 14.3773C8.87178 13.2463 8.87178 11.4125 9.98477 10.2814Z" fill="#256386"/>
</svg>
